<svg width="356" height="297" viewBox="0 0 356 297" fill="none" xmlns="http://www.w3.org/2000/svg">
<path d="M135.334 296.584C61.0328 296.584 0.800781 292.992 0.800781 288.563C0.800781 284.133 61.0328 280.541 135.334 280.541C209.635 280.541 269.867 284.133 269.867 288.563C269.867 292.992 209.635 296.584 135.334 296.584Z" fill="#235B95"/>
<path d="M4.10352 214.219V241.749C4.10352 244.383 6.25685 246.531 8.88885 246.531H261.778C264.414 246.531 266.563 244.383 266.563 241.749V214.219H4.10352Z" fill="#F4F3F3"/>
<path d="M266.565 62.1748C266.565 59.5414 264.416 57.3894 261.78 57.3894H8.89019C6.25685 57.3894 4.10352 59.5414 4.10352 62.1748V214.219H266.565V62.1748Z" fill="#4B425F"/>
<path d="M181.026 274.246H90.75V246.53H181.026V274.246Z" fill="#D8D7D5"/>
<path d="M201.479 287.223H69.0566V274.248H201.479V287.223Z" fill="#F4F3F3"/>
<path d="M181.026 256.547H90.75V246.53H181.026V256.547Z" fill="#BCBBB9"/>
<path d="M17.6719 71.0414H253.047V200.193H17.6719V71.0414Z" fill="#5FB8AE"/>
<path d="M110.387 96.3756L94.0088 112.756L77.6301 96.3756L71.0781 102.928L87.4568 119.308L71.0781 135.686L77.6301 142.238L94.0088 125.861L110.387 142.238L116.939 135.686L100.561 119.308L116.939 102.928L110.387 96.3756Z" fill="#4B425F"/>
<path d="M199.59 102.928L193.038 96.3756L176.659 112.756L160.281 96.3756L153.729 102.928L170.107 119.308L153.729 135.686L160.281 142.238L176.659 125.861L193.038 142.238L199.59 135.686L183.211 119.308L199.59 102.928Z" fill="#4B425F"/>
<path d="M170.421 182.252C135.761 158.319 100.651 182.009 100.299 182.252L95.7539 175.668C96.1486 175.395 135.817 148.635 174.966 175.668L170.421 182.252Z" fill="#4B425F"/>
<path d="M350.381 0.924095H231.714C228.769 0.924095 226.381 3.3121 226.381 6.25743V82.8948C226.381 85.8401 228.769 88.2281 231.714 88.2281H245.454L231.934 113.857L277.561 88.2281H350.381C353.326 88.2281 355.714 85.8401 355.714 82.8948V6.25743C355.714 3.3121 353.326 0.924095 350.381 0.924095Z" fill="white"/>
<path d="M274.136 20.288V14.672H255.368L252.056 33.248H258.2C258.872 32.32 259.592 31.648 260.36 31.232C261.128 30.784 262.12 30.56 263.336 30.56C264.264 30.56 265.08 30.72 265.784 31.04C266.488 31.36 267.096 31.808 267.608 32.384C268.12 32.96 268.504 33.632 268.76 34.4C269.016 35.168 269.144 35.984 269.144 36.848C269.144 37.68 269 38.496 268.712 39.296C268.456 40.064 268.072 40.752 267.56 41.36C267.08 41.936 266.472 42.416 265.736 42.8C265.032 43.152 264.232 43.328 263.336 43.328C261.8 43.328 260.536 42.88 259.544 41.984C258.552 41.056 257.976 39.824 257.816 38.288H251C251.032 40.048 251.384 41.6 252.056 42.944C252.76 44.256 253.688 45.36 254.84 46.256C255.992 47.152 257.304 47.824 258.776 48.272C260.28 48.688 261.848 48.896 263.48 48.896C265.176 48.928 266.776 48.656 268.28 48.08C269.784 47.472 271.096 46.624 272.216 45.536C273.368 44.448 274.28 43.168 274.952 41.696C275.624 40.192 275.96 38.576 275.96 36.848C275.96 35.28 275.72 33.808 275.24 32.432C274.792 31.024 274.12 29.808 273.224 28.784C272.36 27.76 271.288 26.944 270.008 26.336C268.728 25.728 267.256 25.424 265.592 25.424C264.248 25.424 263.048 25.632 261.992 26.048C260.936 26.432 259.944 27.088 259.016 28.016L258.92 27.92L260.264 20.288H274.136Z" fill="#222222"/>
<path d="M285.592 31.328C285.592 30.752 285.592 30.064 285.592 29.264C285.624 28.432 285.688 27.584 285.784 26.72C285.88 25.856 286.04 25.008 286.264 24.176C286.488 23.312 286.792 22.544 287.176 21.872C287.592 21.2 288.104 20.656 288.712 20.24C289.352 19.824 290.136 19.616 291.064 19.616C291.992 19.616 292.776 19.824 293.416 20.24C294.056 20.656 294.584 21.2 295 21.872C295.416 22.544 295.72 23.312 295.912 24.176C296.136 25.008 296.296 25.856 296.392 26.72C296.52 27.584 296.584 28.432 296.584 29.264C296.616 30.064 296.632 30.752 296.632 31.328C296.632 32.288 296.6 33.456 296.536 34.832C296.472 36.176 296.264 37.488 295.912 38.768C295.592 40.016 295.048 41.088 294.28 41.984C293.544 42.88 292.472 43.328 291.064 43.328C289.688 43.328 288.632 42.88 287.896 41.984C287.16 41.088 286.616 40.016 286.264 38.768C285.944 37.488 285.752 36.176 285.688 34.832C285.624 33.456 285.592 32.288 285.592 31.328ZM278.776 31.328C278.776 34.688 279.096 37.504 279.736 39.776C280.408 42.016 281.304 43.808 282.424 45.152C283.544 46.496 284.84 47.456 286.312 48.032C287.816 48.608 289.4 48.896 291.064 48.896C292.76 48.896 294.344 48.608 295.816 48.032C297.32 47.456 298.632 46.496 299.752 45.152C300.904 43.808 301.8 42.016 302.44 39.776C303.112 37.504 303.448 34.688 303.448 31.328C303.448 28.064 303.112 25.328 302.44 23.12C301.8 20.88 300.904 19.088 299.752 17.744C298.632 16.4 297.32 15.44 295.816 14.864C294.344 14.288 292.76 14 291.064 14C289.4 14 287.816 14.288 286.312 14.864C284.84 15.44 283.544 16.4 282.424 17.744C281.304 19.088 280.408 20.88 279.736 23.12C279.096 25.328 278.776 28.064 278.776 31.328Z" fill="#222222"/>
<path d="M313.224 31.328C313.224 30.752 313.224 30.064 313.224 29.264C313.256 28.432 313.32 27.584 313.416 26.72C313.512 25.856 313.672 25.008 313.896 24.176C314.12 23.312 314.424 22.544 314.808 21.872C315.224 21.2 315.736 20.656 316.344 20.24C316.984 19.824 317.768 19.616 318.696 19.616C319.624 19.616 320.408 19.824 321.048 20.24C321.688 20.656 322.216 21.2 322.632 21.872C323.048 22.544 323.352 23.312 323.544 24.176C323.768 25.008 323.928 25.856 324.024 26.72C324.152 27.584 324.216 28.432 324.216 29.264C324.248 30.064 324.264 30.752 324.264 31.328C324.264 32.288 324.232 33.456 324.168 34.832C324.104 36.176 323.896 37.488 323.544 38.768C323.224 40.016 322.68 41.088 321.912 41.984C321.176 42.88 320.104 43.328 318.696 43.328C317.32 43.328 316.264 42.88 315.528 41.984C314.792 41.088 314.248 40.016 313.896 38.768C313.576 37.488 313.384 36.176 313.32 34.832C313.256 33.456 313.224 32.288 313.224 31.328ZM306.408 31.328C306.408 34.688 306.728 37.504 307.368 39.776C308.04 42.016 308.936 43.808 310.056 45.152C311.176 46.496 312.472 47.456 313.944 48.032C315.448 48.608 317.032 48.896 318.696 48.896C320.392 48.896 321.976 48.608 323.448 48.032C324.952 47.456 326.264 46.496 327.384 45.152C328.536 43.808 329.432 42.016 330.072 39.776C330.744 37.504 331.08 34.688 331.08 31.328C331.08 28.064 330.744 25.328 330.072 23.12C329.432 20.88 328.536 19.088 327.384 17.744C326.264 16.4 324.952 15.44 323.448 14.864C321.976 14.288 320.392 14 318.696 14C317.032 14 315.448 14.288 313.944 14.864C312.472 15.44 311.176 16.4 310.056 17.744C308.936 19.088 308.04 20.88 307.368 23.12C306.728 25.328 306.408 28.064 306.408 31.328Z" fill="#222222"/>
<path d="M265.839 70.0358C265.977 70.0358 266.094 70.0851 266.195 70.1878C266.298 70.2865 266.347 70.4065 266.347 70.5438V71.2211C266.347 71.3611 266.298 71.4785 266.195 71.5812C266.094 71.6798 265.977 71.7305 265.839 71.7305H258.233C258.094 71.7305 257.974 71.6798 257.873 71.5812C257.774 71.4785 257.725 71.3611 257.725 71.2211V59.0598C257.725 58.9211 257.774 58.8025 257.873 58.6998C257.974 58.6011 258.094 58.5505 258.233 58.5505H265.689C265.826 58.5505 265.946 58.6011 266.045 58.6998C266.146 58.8025 266.195 58.9211 266.195 59.0598V59.7371C266.195 59.8745 266.146 59.9945 266.045 60.0931C265.946 60.1945 265.826 60.2452 265.689 60.2452H259.511V64.2185H265.274C265.413 64.2185 265.531 64.2678 265.631 64.3678C265.733 64.4691 265.782 64.5878 265.782 64.7265V65.4038C265.782 65.5411 265.733 65.6611 265.631 65.7611C265.531 65.8611 265.413 65.9132 265.274 65.9132H259.511V70.0358H265.839" fill="#3B393D"/>
<path d="M272.539 64.7265H275.721C276.625 64.7265 277.325 64.5465 277.82 64.1905C278.317 63.8318 278.565 63.2505 278.565 62.4478C278.565 61.6452 278.317 61.0772 277.82 60.7452C277.325 60.4118 276.625 60.2452 275.721 60.2452H272.539V64.7265ZM275.815 58.5505C276.432 58.5505 277.013 58.6251 277.557 58.7758C278.104 58.9265 278.584 59.1585 278.997 59.4731C279.412 59.7865 279.743 60.1892 279.987 60.6785C280.232 61.1678 280.355 61.7572 280.355 62.4478C280.355 63.4652 280.099 64.2745 279.591 64.8771C279.084 65.4785 278.432 65.9065 277.643 66.1571L280.484 71.1091L280.541 71.3158L280.419 71.6078L280.128 71.7305H279.317C279.068 71.7305 278.883 71.6678 278.763 71.5411C278.643 71.4171 278.56 71.3091 278.508 71.2211L275.779 66.4198H272.539V71.2211C272.539 71.3611 272.489 71.4785 272.391 71.5812C272.289 71.6798 272.169 71.7305 272.031 71.7305H271.26C271.123 71.7305 271.003 71.6798 270.901 71.5812C270.803 71.4785 270.752 71.3611 270.752 71.2211V59.0598C270.752 58.9211 270.803 58.8025 270.901 58.6998C271.003 58.6011 271.123 58.5505 271.26 58.5505H275.815" fill="#3B393D"/>
<path d="M286.679 64.7265H289.861C290.765 64.7265 291.466 64.5465 291.961 64.1905C292.458 63.8318 292.705 63.2505 292.705 62.4478C292.705 61.6452 292.458 61.0772 291.961 60.7452C291.466 60.4118 290.765 60.2452 289.861 60.2452H286.679V64.7265ZM289.955 58.5505C290.573 58.5505 291.153 58.6251 291.697 58.7758C292.245 58.9265 292.723 59.1585 293.138 59.4731C293.551 59.7865 293.882 60.1892 294.127 60.6785C294.371 61.1678 294.494 61.7572 294.494 62.4478C294.494 63.4652 294.239 64.2745 293.731 64.8771C293.223 65.4785 292.573 65.9065 291.783 66.1571L294.625 71.1091L294.682 71.3158L294.559 71.6078L294.267 71.7305H293.458C293.207 71.7305 293.023 71.6678 292.903 71.5411C292.783 71.4171 292.699 71.3091 292.647 71.2211L289.918 66.4198H286.679V71.2211C286.679 71.3611 286.63 71.4785 286.53 71.5812C286.429 71.6798 286.309 71.7305 286.171 71.7305H285.401C285.262 71.7305 285.142 71.6798 285.041 71.5812C284.942 71.4785 284.893 71.3611 284.893 71.2211V59.0598C284.893 58.9211 284.942 58.8025 285.041 58.6998C285.142 58.6011 285.262 58.5505 285.401 58.5505H289.955" fill="#3B393D"/>
<path d="M307.145 63.5613C307.119 62.9706 307.023 62.456 306.854 62.0173C306.685 61.5773 306.45 61.2133 306.147 60.9239C305.846 60.6359 305.491 60.4186 305.085 60.2746C304.677 60.1319 304.229 60.0586 303.739 60.0586C303.25 60.0586 302.799 60.1319 302.393 60.2746C301.983 60.4186 301.63 60.6359 301.327 60.9239C301.026 61.2133 300.789 61.5773 300.611 62.0173C300.437 62.456 300.343 62.9706 300.33 63.5613C300.305 64.1253 300.291 64.6519 300.291 65.1413C300.291 65.6319 300.305 66.1586 300.33 66.7226C300.343 67.3133 300.437 67.8279 300.611 68.2666C300.789 68.7066 301.026 69.0719 301.327 69.3599C301.63 69.6479 301.983 69.8639 302.393 70.0093C302.799 70.1533 303.25 70.2253 303.739 70.2253C304.229 70.2253 304.677 70.1533 305.085 70.0093C305.491 69.8639 305.846 69.6479 306.147 69.3599C306.45 69.0719 306.685 68.7066 306.854 68.2666C307.023 67.8279 307.119 67.3133 307.145 66.7226C307.171 66.1586 307.185 65.6319 307.185 65.1413C307.185 64.6519 307.171 64.1253 307.145 63.5613ZM298.541 63.4666C298.554 62.7626 298.677 62.0999 298.909 61.4799C299.139 60.8586 299.475 60.3186 299.917 59.8613C300.357 59.4026 300.895 59.0373 301.535 58.7679C302.174 58.4986 302.909 58.3626 303.739 58.3626C304.567 58.3626 305.302 58.4986 305.939 58.7679C306.581 59.0373 307.119 59.4026 307.559 59.8613C307.999 60.3186 308.335 60.8586 308.567 61.4799C308.799 62.0999 308.921 62.7626 308.934 63.4666C308.973 64.5839 308.973 65.7 308.934 66.8173C308.909 67.5213 308.781 68.1839 308.549 68.8039C308.317 69.4253 307.981 69.9679 307.541 70.4333C307.101 70.8973 306.565 71.2613 305.931 71.5253C305.297 71.7879 304.567 71.9199 303.739 71.9199C302.909 71.9199 302.179 71.7879 301.543 71.5253C300.911 71.2613 300.374 70.8973 299.934 70.4333C299.494 69.9679 299.158 69.4253 298.926 68.8039C298.694 68.1839 298.567 67.5213 298.541 66.8173C298.505 65.7 298.505 64.5839 298.541 63.4666" fill="#3B393D"/>
<path d="M315.355 64.7265H318.536C319.44 64.7265 320.14 64.5465 320.636 64.1905C321.134 63.8318 321.38 63.2505 321.38 62.4478C321.38 61.6452 321.134 61.0772 320.636 60.7452C320.14 60.4118 319.44 60.2452 318.536 60.2452H315.355V64.7265ZM318.631 58.5505C319.248 58.5505 319.828 58.6251 320.372 58.7758C320.919 58.9265 321.399 59.1585 321.812 59.4731C322.227 59.7865 322.558 60.1892 322.803 60.6785C323.047 61.1678 323.17 61.7572 323.17 62.4478C323.17 63.4652 322.915 64.2745 322.407 64.8771C321.899 65.4785 321.248 65.9065 320.459 66.1571L323.3 71.1091L323.358 71.3158L323.235 71.6078L322.943 71.7305H322.134C321.883 71.7305 321.698 71.6678 321.579 71.5411C321.459 71.4171 321.375 71.3091 321.323 71.2211L318.594 66.4198H315.355V71.2211C315.355 71.3611 315.306 71.4785 315.206 71.5812C315.104 71.6798 314.984 71.7305 314.847 71.7305H314.076C313.938 71.7305 313.818 71.6798 313.716 71.5812C313.618 71.4785 313.568 71.3611 313.568 71.2211V59.0598C313.568 58.9211 313.618 58.8025 313.716 58.6998C313.818 58.6011 313.938 58.5505 314.076 58.5505H318.631Z" fill="#3B393D"/>
</svg>
