<svg width="356" height="297" fill="none" xmlns="http://www.w3.org/2000/svg"><path d="M135.334 296.584c-74.301 0-134.533-3.592-134.533-8.021 0-4.43 60.232-8.022 134.533-8.022 74.301 0 134.533 3.592 134.533 8.022 0 4.429-60.232 8.021-134.533 8.021z" fill="#235B95"/><path d="M4.104 214.219v27.53c0 2.634 2.153 4.782 4.785 4.782h252.889a4.793 4.793 0 0 0 4.786-4.782v-27.53H4.104z" fill="#F4F3F3"/><path d="M266.565 62.175a4.796 4.796 0 0 0-4.785-4.786H8.89a4.799 4.799 0 0 0-4.786 4.786v152.044h262.461V62.175z" fill="#4B425F"/><path d="M181.026 274.245H90.75v-27.716h90.276v27.716z" fill="#D8D7D5"/><path d="M201.479 287.223H69.057v-12.975h132.422v12.975z" fill="#F4F3F3"/><path d="M181.026 256.547H90.75V246.53h90.276v10.017z" fill="#BCBBB9"/><path d="M17.672 71.041h235.375v129.152H17.672V71.041z" fill="#5FB8AE"/><path d="m110.387 96.375-16.378 16.38-16.379-16.38-6.552 6.552 16.379 16.38-16.379 16.378 6.552 6.552L94.01 125.86l16.378 16.377 6.552-6.552-16.378-16.378 16.378-16.38-6.552-6.552zM199.59 102.927l-6.552-6.552-16.379 16.38-16.378-16.38-6.552 6.552 16.378 16.38-16.378 16.378 6.552 6.552 16.378-16.377 16.379 16.377 6.552-6.552-16.379-16.378 16.379-16.38zM170.421 182.251c-34.66-23.933-69.77-.243-70.122 0l-4.545-6.584c.395-.273 40.063-27.033 79.212 0l-4.545 6.584z" fill="#4B425F"/><path d="M350.381.923H231.714a5.333 5.333 0 0 0-5.333 5.333v76.638a5.333 5.333 0 0 0 5.333 5.333h13.74l-13.52 25.629 45.627-25.629h72.82a5.333 5.333 0 0 0 5.333-5.333V6.256a5.333 5.333 0 0 0-5.333-5.333z" fill="#fff"/><path d="M275.102 33.46v5.227h-3.844V46h-6.539v-7.313h-13.453v-5.835l12.492-20.625h7.5V33.46h3.844zm-18.891 0h8.508V18.79l-8.508 14.67zM289.938 46.844c-4.329 0-7.368-1.516-9.118-4.547-1.734-3.031-2.601-7.352-2.601-12.961 0-5.61.867-9.938 2.601-12.984 1.75-3.047 4.789-4.57 9.118-4.57 4.328 0 7.367 1.523 9.117 4.57 1.734 3.046 2.601 7.375 2.601 12.984 0 5.61-.875 9.93-2.625 12.96-1.734 3.032-4.765 4.548-9.093 4.548zm3.914-8.555c.609-2.062.914-5.047.914-8.953 0-4.094-.313-7.125-.938-9.094-.609-1.969-1.906-2.953-3.89-2.953-1.985 0-3.297.984-3.938 2.953-.641 1.969-.961 5-.961 9.094 0 3.906.32 6.898.961 8.977.641 2.062 1.953 3.093 3.938 3.093 1.984 0 3.289-1.039 3.914-3.117zM328.539 33.46v5.227h-3.844V46h-6.539v-7.313h-13.453v-5.835l12.492-20.625h7.5V33.46h3.844zm-18.891 0h8.508V18.79l-8.508 14.67z" fill="#222"/><path d="M265.839 70.036c.138 0 .255.05.356.152a.475.475 0 0 1 .152.356v.677c0 .14-.049.257-.152.36a.492.492 0 0 1-.356.15h-7.606a.5.5 0 0 1-.36-.15.498.498 0 0 1-.148-.36V59.06a.5.5 0 0 1 .148-.36.499.499 0 0 1 .36-.15h7.456a.49.49 0 0 1 .356.15c.101.102.15.221.15.36v.677a.48.48 0 0 1-.15.356.482.482 0 0 1-.356.152h-6.178v3.974h5.763c.139 0 .257.049.357.149.102.101.151.22.151.359v.677a.483.483 0 0 1-.151.357c-.1.1-.218.152-.357.152h-5.763v4.123h6.328zM272.539 64.727h3.182c.904 0 1.604-.18 2.099-.537.497-.358.745-.94.745-1.742 0-.803-.248-1.37-.745-1.703-.495-.333-1.195-.5-2.099-.5h-3.182v4.482zm3.276-6.177c.617 0 1.198.075 1.742.226a4.18 4.18 0 0 1 1.44.697c.415.313.746.716.99 1.206.245.489.368 1.078.368 1.769 0 1.017-.256 1.827-.764 2.43a4.125 4.125 0 0 1-1.948 1.28l2.841 4.951.057.207-.122.292-.291.123h-.811c-.249 0-.434-.063-.554-.19a1.79 1.79 0 0 1-.255-.32l-2.729-4.801h-3.24v4.801c0 .14-.05.257-.148.36a.502.502 0 0 1-.36.15h-.771a.502.502 0 0 1-.359-.15.503.503 0 0 1-.149-.36V59.06c0-.139.051-.258.149-.36a.501.501 0 0 1 .359-.15h4.555zM286.679 64.727h3.182c.904 0 1.605-.18 2.1-.537.497-.358.744-.94.744-1.742 0-.803-.247-1.37-.744-1.703-.495-.333-1.196-.5-2.1-.5h-3.182v4.482zm3.276-6.177c.618 0 1.198.075 1.742.226.548.15 1.026.382 1.441.697a3.4 3.4 0 0 1 .989 1.206c.244.489.367 1.078.367 1.769 0 1.017-.255 1.827-.763 2.43a4.125 4.125 0 0 1-1.948 1.28l2.842 4.951.057.207-.123.292-.292.123h-.809c-.251 0-.435-.063-.555-.19a1.804 1.804 0 0 1-.256-.32l-2.729-4.801h-3.239v4.801c0 .14-.049.257-.149.36a.498.498 0 0 1-.359.15h-.77a.5.5 0 0 1-.36-.15.498.498 0 0 1-.148-.36V59.06a.5.5 0 0 1 .148-.36.499.499 0 0 1 .36-.15h4.554zM307.145 63.56c-.026-.59-.122-1.105-.291-1.544a2.942 2.942 0 0 0-.707-1.093 2.94 2.94 0 0 0-1.062-.65 4.053 4.053 0 0 0-1.346-.215c-.489 0-.94.073-1.346.216a2.94 2.94 0 0 0-1.066.649c-.301.29-.538.653-.716 1.093-.174.439-.268.954-.281 1.544-.025.564-.039 1.091-.039 1.58 0 .491.014 1.018.039 1.582.013.59.107 1.105.281 1.544.178.44.415.805.716 1.093.303.288.656.504 1.066.65.406.143.857.215 1.346.215.49 0 .938-.072 1.346-.216a2.959 2.959 0 0 0 1.062-.649 2.93 2.93 0 0 0 .707-1.093c.169-.439.265-.954.291-1.544.026-.564.04-1.091.04-1.582 0-.489-.014-1.016-.04-1.58zm-8.604-.094a5.941 5.941 0 0 1 .368-1.987 4.594 4.594 0 0 1 1.008-1.619c.44-.458.978-.824 1.618-1.093.639-.27 1.374-.405 2.204-.405.828 0 1.563.136 2.2.405.642.27 1.18.635 1.62 1.093.44.458.776.998 1.008 1.619a5.94 5.94 0 0 1 .367 1.987 47.994 47.994 0 0 1 0 3.35 6.267 6.267 0 0 1-.385 1.987 4.773 4.773 0 0 1-1.008 1.63c-.44.463-.976.827-1.61 1.091-.634.263-1.364.395-2.192.395-.83 0-1.56-.132-2.196-.395a4.662 4.662 0 0 1-1.609-1.092 4.773 4.773 0 0 1-1.008-1.629 6.295 6.295 0 0 1-.385-1.987 51.991 51.991 0 0 1 0-3.35zM315.355 64.727h3.181c.904 0 1.604-.18 2.1-.537.498-.358.744-.94.744-1.742 0-.803-.246-1.37-.744-1.703-.496-.333-1.196-.5-2.1-.5h-3.181v4.482zm3.276-6.177c.617 0 1.197.075 1.741.226a4.18 4.18 0 0 1 1.44.697c.415.313.746.716.991 1.206.244.489.367 1.078.367 1.769 0 1.017-.255 1.827-.763 2.43a4.13 4.13 0 0 1-1.948 1.28l2.841 4.951.058.207-.123.292-.292.123h-.809c-.251 0-.436-.063-.555-.19a1.804 1.804 0 0 1-.256-.32l-2.729-4.801h-3.239v4.801c0 .14-.049.257-.149.36a.502.502 0 0 1-.359.15h-.771a.502.502 0 0 1-.36-.15.502.502 0 0 1-.148-.36V59.06a.504.504 0 0 1 .508-.51h4.555z" fill="#3B393D"/></svg>